<?xml version="1.0" encoding="UTF-8" standalone="no"?>
<!-- Created with Inkscape (http://www.inkscape.org/) -->

<svg
   xmlns:dc="http://purl.org/dc/elements/1.1/"
   xmlns:cc="http://creativecommons.org/ns#"
   xmlns:rdf="http://www.w3.org/1999/02/22-rdf-syntax-ns#"
   xmlns:svg="http://www.w3.org/2000/svg"
   xmlns="http://www.w3.org/2000/svg"
   xmlns:sodipodi="http://sodipodi.sourceforge.net/DTD/sodipodi-0.dtd"
   xmlns:inkscape="http://www.inkscape.org/namespaces/inkscape"
   width="12.289709mm"
   height="11.879213mm"
   viewBox="0 0 43.546213 42.091701"
   id="svg5188"
   version="1.1"
   inkscape:version="0.91 r13725"
   sodipodi:docname="apple.svg">
  <defs
     id="defs5190" />
  <sodipodi:namedview
     id="base"
     pagecolor="#ffffff"
     bordercolor="#666666"
     borderopacity="1.0"
     inkscape:pageopacity="0.0"
     inkscape:pageshadow="2"
     inkscape:zoom="0.35"
     inkscape:cx="-301.79832"
     inkscape:cy="12.474421"
     inkscape:document-units="px"
     inkscape:current-layer="layer1"
     showgrid="false"
     fit-margin-top="0"
     fit-margin-left="0"
     fit-margin-right="0"
     fit-margin-bottom="0"
     inkscape:window-width="1920"
     inkscape:window-height="1017"
     inkscape:window-x="-8"
     inkscape:window-y="-8"
     inkscape:window-maximized="1" />
  <metadata
     id="metadata5193">
    <rdf:RDF>
      <cc:Work
         rdf:about="">
        <dc:format>image/svg+xml</dc:format>
        <dc:type
           rdf:resource="http://purl.org/dc/dcmitype/StillImage" />
        <dc:title></dc:title>
      </cc:Work>
    </rdf:RDF>
  </metadata>
  <g
     inkscape:label="Layer 1"
     inkscape:groupmode="layer"
     id="layer1"
     transform="translate(-249.65546,-502.74492)">
    <path
       style="clip-rule:evenodd;fill:none;fill-rule:nonzero;stroke:#ffffff;stroke-width:1.79993141;stroke-linecap:round;stroke-linejoin:round;image-rendering:optimizeQuality;shape-rendering:geometricPrecision;text-rendering:geometricPrecision"
       inkscape:connector-curvature="0"
       class="fil3 str1"
       d="m 257.21518,524.16931 c 0.09,-7.28972 5.3098,-13.76948 13.85947,-9.71963 1.61994,0.71997 2.78989,1.52994 3.68986,1.52994 0.89996,0 2.06992,-0.80997 3.68986,-1.52994 10.97958,-5.2198 16.46937,7.01973 12.59952,16.01939 -1.25995,2.87989 -2.6999,5.66978 -4.58983,8.09969 -5.66978,7.10973 -17.63933,7.10973 -23.39911,0.09 -0.35998,-0.44998 -0.71997,-0.89996 -0.98996,-1.34995"
       id="path342" />
    <path
       style="clip-rule:evenodd;fill:none;fill-rule:nonzero;stroke:#ffffff;stroke-width:1.79993141;stroke-linecap:round;stroke-linejoin:round;image-rendering:optimizeQuality;shape-rendering:geometricPrecision;text-rendering:geometricPrecision"
       inkscape:connector-curvature="0"
       class="fil3 str1"
       d="m 288.174,523.71933 c 0.09,1.88993 -0.18,3.86985 -0.98996,5.66978 -0.98997,2.33991 -2.15992,4.58983 -3.68986,6.56975 -2.24992,2.87989 -5.84978,4.31984 -9.35965,4.31984"
       id="path344" />
    <path
       style="clip-rule:evenodd;fill:none;fill-rule:nonzero;stroke:#ffffff;stroke-width:1.79993141;stroke-linecap:round;stroke-linejoin:round;image-rendering:optimizeQuality;shape-rendering:geometricPrecision;text-rendering:geometricPrecision"
       inkscape:connector-curvature="0"
       class="fil3 str1"
       d="m 270.26468,504.46006 c 3.59986,2.5199 4.49983,7.9197 4.49983,11.60956"
       id="path346" />
    <path
       style="clip-rule:evenodd;fill:none;fill-rule:nonzero;stroke:#ffffff;stroke-width:1.79993141;stroke-linecap:round;stroke-linejoin:round;image-rendering:optimizeQuality;shape-rendering:geometricPrecision;text-rendering:geometricPrecision"
       inkscape:connector-curvature="0"
       class="fil3 str1"
       d="m 287.90401,506.52998 c -1.70994,2.24992 -4.31984,3.68986 -7.37972,3.86985 -2.78989,0.09 -5.3998,-0.98996 -7.28972,-2.87989 1.70993,-2.24991 4.31983,-3.68986 7.37972,-3.86985 2.78989,-0.09 5.39979,0.98996 7.28972,2.87989 z"
       id="path348" />
    <path
       style="clip-rule:evenodd;fill:none;fill-rule:nonzero;stroke:#ffffff;stroke-width:1.79993141;stroke-linecap:round;stroke-linejoin:round;image-rendering:optimizeQuality;shape-rendering:geometricPrecision;text-rendering:geometricPrecision"
       inkscape:connector-curvature="0"
       class="fil3 str1"
       d="m 255.05526,516.78959 4.22984,0 m -8.63967,4.13984 0,12.50953 m -0.09,0 0,0 c 0,2.5199 2.06992,3.86985 4.49983,3.86985 l 17.36934,0 0,-13.2295 -17.36934,0 c -2.5199,0 -4.49983,-1.34995 -4.49983,-3.86985 l 0,0 c 0,-2.5199 2.06992,-3.50987 4.49983,-3.50987"
       id="path350" />
    <line
       style="clip-rule:evenodd;fill:none;fill-rule:nonzero;stroke:#ffffff;stroke-width:1.79993141;stroke-linecap:round;stroke-linejoin:round;image-rendering:optimizeQuality;shape-rendering:geometricPrecision;text-rendering:geometricPrecision"
       class="fil3 str1"
       x1="266.93481"
       y1="524.43927"
       x2="266.93481"
       y2="531.27905"
       id="line352" />
    <line
       style="clip-rule:evenodd;fill:none;fill-rule:nonzero;stroke:#ffffff;stroke-width:1.79993141;stroke-linecap:round;stroke-linejoin:round;image-rendering:optimizeQuality;shape-rendering:geometricPrecision;text-rendering:geometricPrecision"
       class="fil3 str1"
       x1="261.44501"
       y1="524.43927"
       x2="261.44501"
       y2="533.43896"
       id="line354" />
    <line
       style="clip-rule:evenodd;fill:none;fill-rule:nonzero;stroke:#ffffff;stroke-width:1.79993141;stroke-linecap:round;stroke-linejoin:round;image-rendering:optimizeQuality;shape-rendering:geometricPrecision;text-rendering:geometricPrecision"
       class="fil3 str1"
       x1="256.04523"
       y1="524.43927"
       x2="256.04523"
       y2="531.27905"
       id="line356" />
  </g>
</svg>
