<?xml version="1.0" encoding="UTF-8" standalone="no"?>
<svg
   xmlns:dc="http://purl.org/dc/elements/1.1/"
   xmlns:cc="http://creativecommons.org/ns#"
   xmlns:rdf="http://www.w3.org/1999/02/22-rdf-syntax-ns#"
   xmlns:svg="http://www.w3.org/2000/svg"
   xmlns="http://www.w3.org/2000/svg"
   viewBox="0 0 209.25 209.24875"
   height="209.24875"
   width="209.25"
   xml:space="preserve"
   version="1.1"
   id="svg4136"><metadata
     id="metadata4142"><rdf:RDF><cc:Work
         rdf:about=""><dc:format>image/svg+xml</dc:format><dc:type
           rdf:resource="http://purl.org/dc/dcmitype/StillImage" /><dc:title></dc:title></cc:Work></rdf:RDF></metadata><defs
     id="defs4140"><clipPath
       id="clipPath4150"
       clipPathUnits="userSpaceOnUse"><path
         id="path4152"
         d="m 0,320.559 339.998,0 L 339.998,0 0,0 0,320.559 Z" /></clipPath></defs><g
     transform="matrix(1.25,0,0,-1.25,-107.72512,358.14512)"
     id="g4144"><g
       style="fill:#ffffff"
       transform="translate(169.9131,286.5161)"
       id="g4192"><path
         id="path4194"
         style="fill:#ffffff;fill-opacity:1;fill-rule:nonzero;stroke:none"
         d="m 0,0 c -46.24,0 -83.733,-37.503 -83.733,-83.722 0,-46.208 37.493,-83.677 83.733,-83.677 46.183,0 83.667,37.469 83.667,83.677 C 83.667,-37.503 46.183,0 0,0 m 0,-162.272 c -43.461,0 -78.589,35.195 -78.589,78.55 0,43.427 35.128,78.593 78.589,78.593 43.375,0 78.521,-35.166 78.521,-78.593 0,-43.355 -35.146,-78.55 -78.521,-78.55" /></g><g
       style="fill:#ffffff"
       transform="translate(97.7622,203.3667)"
       id="g4196"><path
         id="path4198"
         style="fill:#ffffff;fill-opacity:1;fill-rule:nonzero;stroke:none"
         d="M 0,0 C 28.569,-8.986 55.516,-36.864 63.671,-72.496 23.508,-67.269 0.09,-34.27 0,0" /></g><g
       style="fill:#ffffff"
       transform="translate(241.6572,203.3667)"
       id="g4200"><path
         id="path4202"
         style="fill:#ffffff;fill-opacity:1;fill-rule:nonzero;stroke:none"
         d="M 0,0 C -28.569,-8.986 -55.847,-36.864 -63.668,-72.496 -23.51,-67.269 -0.089,-34.27 0,0" /></g><g
       style="fill:#ffffff"
       transform="translate(169.8008,130.8711)"
       id="g4204"><path
         id="path4206"
         style="fill:#ffffff;fill-opacity:1;fill-rule:nonzero;stroke:none"
         d="M 0,0 C -30.45,47.015 -23.877,111.491 0.03,146.226 22.829,111.491 29.965,47.015 0,0" /></g></g></svg>