<?xml version="1.0" encoding="UTF-8" standalone="no"?>
<svg
   xmlns:dc="http://purl.org/dc/elements/1.1/"
   xmlns:cc="http://creativecommons.org/ns#"
   xmlns:rdf="http://www.w3.org/1999/02/22-rdf-syntax-ns#"
   xmlns:svg="http://www.w3.org/2000/svg"
   xmlns="http://www.w3.org/2000/svg"
   id="svg2"
   viewBox="0 0 240 180"
   height="180"
   width="240"
   preserveAspectRatio="xMidYMid meet"
   version="1.1">
  <metadata
     id="metadata10">
    <rdf:RDF>
      <cc:Work
         rdf:about="">
        <dc:format>image/svg+xml</dc:format>
        <dc:type
           rdf:resource="http://purl.org/dc/dcmitype/StillImage" />
        <dc:title></dc:title>
      </cc:Work>
    </rdf:RDF>
  </metadata>
  <defs
     id="defs8" />
  <path
     style="fill:#888888;fill-opacity:1"
     id="path4"
     d="m 110,80 q 0,2.5 -1.75,4.25 Q 106.5,86 104,86 q -2.5,0 -4.249998,-1.75 -1.75,-1.75 -1.75,-4.25 0,-2.5 1.75,-4.25 Q 101.5,74 104,74 q 2.5,0 4.25,1.75 Q 110,77.5 110,80 Z m 32,12 0,14 -43.999998,0 0,-6 L 108,90 l 5,5 16,-16 z m 3,-22 -49.999998,0 q -0.406,0 -0.704,0.296 -0.298,0.296 -0.296,0.704 l 0,38 q 0,0.406 0.296,0.704 0.296,0.298 0.704,0.296 L 145,110 q 0.406,0 0.704,-0.296 0.298,-0.296 0.296,-0.704 l 0,-38 q 0,-0.406 -0.296,-0.704 Q 145.408,69.998 145,70 Z m 5,1 0,38 q 0,2.062 -1.468,3.532 -1.468,1.47 -3.532,1.468 l -49.999998,0 q -2.062,0 -3.531999,-1.468 -1.47,-1.468 -1.468,-3.532 l 0,-38 q 0,-2.062 1.468,-3.532 1.467999,-1.47 3.531999,-1.468 L 145,66 q 2.062,0 3.532,1.468 1.47,1.468 1.468,3.532 z" />
</svg>
