<?xml version="1.0" encoding="UTF-8" standalone="no"?>
<!-- Created with Inkscape (http://www.inkscape.org/) -->

<svg
   xmlns:dc="http://purl.org/dc/elements/1.1/"
   xmlns:cc="http://creativecommons.org/ns#"
   xmlns:rdf="http://www.w3.org/1999/02/22-rdf-syntax-ns#"
   xmlns:svg="http://www.w3.org/2000/svg"
   xmlns="http://www.w3.org/2000/svg"
   xmlns:sodipodi="http://sodipodi.sourceforge.net/DTD/sodipodi-0.dtd"
   xmlns:inkscape="http://www.inkscape.org/namespaces/inkscape"
   width="43.133976"
   height="44.008423"
   viewBox="0 0 43.133976 44.008424"
   id="svg6952"
   version="1.1"
   inkscape:version="0.91 r13725"
   sodipodi:docname="situp.svg">
  <defs
     id="defs6954" />
  <sodipodi:namedview
     id="base"
     pagecolor="#ffffff"
     bordercolor="#666666"
     borderopacity="1.0"
     inkscape:pageopacity="0.0"
     inkscape:pageshadow="2"
     inkscape:zoom="0.35"
     inkscape:cx="655.1384"
     inkscape:cy="-100.8529"
     inkscape:document-units="px"
     inkscape:current-layer="layer1"
     showgrid="false"
     units="px"
     fit-margin-top="0"
     fit-margin-left="0"
     fit-margin-right="0"
     fit-margin-bottom="0"
     inkscape:window-width="1920"
     inkscape:window-height="1017"
     inkscape:window-x="-8"
     inkscape:window-y="-8"
     inkscape:window-maximized="1" />
  <metadata
     id="metadata6957">
    <rdf:RDF>
      <cc:Work
         rdf:about="">
        <dc:format>image/svg+xml</dc:format>
        <dc:type
           rdf:resource="http://purl.org/dc/dcmitype/StillImage" />
        <dc:title></dc:title>
      </cc:Work>
    </rdf:RDF>
  </metadata>
  <g
     inkscape:label="Layer 1"
     inkscape:groupmode="layer"
     id="layer1"
     transform="translate(707.28125,-387.50085)">
    <line
       style="clip-rule:evenodd;fill:none;fill-rule:nonzero;stroke:#ffffff;stroke-width:1.79993141;stroke-linecap:round;stroke-linejoin:round;image-rendering:optimizeQuality;shape-rendering:geometricPrecision;text-rendering:geometricPrecision"
       class="fil3 str1"
       x1="-706.36847"
       y1="430.60922"
       x2="-665.06006"
       y2="430.60922"
       id="line176" />
    <path
       style="clip-rule:evenodd;fill:none;fill-rule:nonzero;stroke:#ffffff;stroke-width:1.79993141;stroke-linecap:round;stroke-linejoin:round;image-rendering:optimizeQuality;shape-rendering:geometricPrecision;text-rendering:geometricPrecision"
       inkscape:connector-curvature="0"
       class="fil3 str1"
       d="m -684.40934,399.11041 c 0.89997,-0.80997 1.52995,-2.96988 1.52995,-3.95985 0,-1.88992 -0.71998,-3.50986 -1.97993,-4.76981 -1.25995,-1.25996 -2.87989,-1.97993 -4.76982,-1.97993 -3.68986,0 -6.74974,3.05988 -6.74974,6.74974 0,3.68986 3.05988,6.74975 6.74974,6.74975 0.09,0 0.26999,0 0.35999,0 l 1.61994,2.6099 -9.44964,-1.25995 c -0.26999,0 -0.53998,0 -0.80997,0 -6.11977,1.16995 -6.74974,11.60955 -4.22984,18.98927 1.97992,5.84978 5.57979,10.07962 10.97958,7.01973 l 0,0 9.08965,-8.09969 8.90967,8.18969 c 0.98996,1.07996 3.32987,1.07996 4.40983,0.09 1.07996,-0.98996 1.07996,-2.6999 0.09,-3.77986 l -11.33957,-11.78955 c 0.09,-0.53998 -2.87989,-1.52994 -4.22984,-0.17999 l -0.09,0.09 -7.64971,5.84977 c -0.71997,-3.32987 -2.15992,-9.98961 2.6099,-9.80962 l 6.65975,0.26999 0,0 c 1.43994,0.09 2.69989,-1.07996 2.78989,-2.51991 0,-0.62997 -0.17999,-1.25995 -0.53998,-1.79993 l -5.57978,-8.72967 c -1.34995,-2.42991 -4.13985,-2.69989 -5.03981,-0.80997"
       id="path178" />
  </g>
</svg>
