<?xml version="1.0" encoding="UTF-8" standalone="no"?>
<!-- Created with Inkscape (http://www.inkscape.org/) -->

<svg
   xmlns:dc="http://purl.org/dc/elements/1.1/"
   xmlns:cc="http://creativecommons.org/ns#"
   xmlns:rdf="http://www.w3.org/1999/02/22-rdf-syntax-ns#"
   xmlns:svg="http://www.w3.org/2000/svg"
   xmlns="http://www.w3.org/2000/svg"
   xmlns:sodipodi="http://sodipodi.sourceforge.net/DTD/sodipodi-0.dtd"
   xmlns:inkscape="http://www.inkscape.org/namespaces/inkscape"
   width="46.293018"
   height="31.885294"
   viewBox="0 0 46.293019 31.885294"
   id="svg7522"
   version="1.1"
   inkscape:version="0.91 r13725"
   sodipodi:docname="sneaker.svg">
  <defs
     id="defs7524" />
  <sodipodi:namedview
     id="base"
     pagecolor="#ffffff"
     bordercolor="#666666"
     borderopacity="1.0"
     inkscape:pageopacity="0.0"
     inkscape:pageshadow="2"
     inkscape:zoom="0.35"
     inkscape:cx="139.57508"
     inkscape:cy="110.22838"
     inkscape:document-units="px"
     inkscape:current-layer="layer1"
     showgrid="false"
     units="px"
     fit-margin-top="0"
     fit-margin-left="0"
     fit-margin-right="0"
     fit-margin-bottom="0"
     inkscape:window-width="1920"
     inkscape:window-height="1017"
     inkscape:window-x="-8"
     inkscape:window-y="-8"
     inkscape:window-maximized="1" />
  <metadata
     id="metadata7527">
    <rdf:RDF>
      <cc:Work
         rdf:about="">
        <dc:format>image/svg+xml</dc:format>
        <dc:type
           rdf:resource="http://purl.org/dc/dcmitype/StillImage" />
        <dc:title></dc:title>
      </cc:Work>
    </rdf:RDF>
  </metadata>
  <g
     inkscape:label="Layer 1"
     inkscape:groupmode="layer"
     id="layer1"
     transform="translate(191.71794,-610.70527)">
    <path
       style="clip-rule:evenodd;fill:none;fill-rule:nonzero;stroke:#ffffff;stroke-width:1.79993141;stroke-linecap:round;stroke-linejoin:round;image-rendering:optimizeQuality;shape-rendering:geometricPrecision;text-rendering:geometricPrecision"
       inkscape:connector-curvature="0"
       class="fil3 str1"
       d="m -146.80425,631.61098 c 0.53998,0.53998 0.71998,5.3998 -3.86985,5.66979 0.09,0.26999 0.17999,0.62997 0.17999,0.89996 0,1.16996 -0.89996,2.06992 -1.88992,2.06992 -0.89997,0 -1.61994,-0.62997 -1.88993,-1.52994 -0.89997,0.26999 -1.79993,0.53998 -2.78989,0.71998 0,0.09 0,0.17999 0,0.17999 0,1.16995 -0.89997,2.06992 -1.88993,2.06992 -0.98996,0 -1.79993,-0.80997 -1.88993,-1.88993 -0.89997,0 -1.79993,0 -2.78989,-0.17999 -0.26999,0.80997 -0.98997,1.34995 -1.79994,1.34995 -1.07995,0 -1.88992,-0.89997 -1.88992,-2.06992 0,0 0,-0.09 0,-0.09 -1.07996,-0.35999 -2.15992,-0.80997 -3.23988,-1.34995 -4.94981,-2.6099 -5.03981,1.07996 -8.81966,2.06992 -4.22984,1.07996 -9.98962,0.98996 -10.79959,-2.24992 -0.53998,-4.13984 -0.26999,-5.57978 0.26999,-6.02977 0.26999,-0.26999 0.44998,-0.71997 1.34995,-0.98996"
       id="path130" />
    <path
       style="clip-rule:evenodd;fill:none;fill-rule:nonzero;stroke:#ffffff;stroke-width:1.79993141;stroke-linecap:round;stroke-linejoin:round;image-rendering:optimizeQuality;shape-rendering:geometricPrecision;text-rendering:geometricPrecision"
       inkscape:connector-curvature="0"
       class="fil3 str1"
       d="m -172.72326,611.72174 c -2.87989,-0.53998 -2.6099,0.89997 -1.88993,3.95985 1.70994,7.10973 -7.28972,7.37972 -11.96954,1.61994 -0.98996,-1.25995 -2.5199,-2.5199 -3.59986,-0.35999 -0.44999,0.89997 -1.16996,13.2295 0,13.2295 l 0.26999,0 c 5.66978,0 9.08965,-3.41987 15.29941,1.43994 5.66979,4.40984 18.5393,3.95985 24.74906,1.61994 l 0.35999,-0.17999 c 3.32987,-1.25995 3.68986,-3.32987 2.69989,-5.2198 -0.89996,-1.70994 -2.78989,-3.23988 -4.31983,-3.77986 -13.2295,-4.13984 -13.2295,-5.48979 -17.63933,-9.08965 -1.88993,-1.52994 -3.50987,-3.23988 -4.04984,-3.32987 z"
       id="path132" />
    <path
       style="clip-rule:evenodd;fill:none;fill-rule:nonzero;stroke:#ffffff;stroke-width:1.79993141;stroke-linecap:round;stroke-linejoin:round;image-rendering:optimizeQuality;shape-rendering:geometricPrecision;text-rendering:geometricPrecision"
       inkscape:connector-curvature="0"
       class="fil3 str1"
       d="m -167.86344,616.22157 c -0.62998,2.96989 -1.34995,5.03981 -3.95985,6.56975"
       id="path134" />
    <path
       style="clip-rule:evenodd;fill:none;fill-rule:nonzero;stroke:#ffffff;stroke-width:1.79993141;stroke-linecap:round;stroke-linejoin:round;image-rendering:optimizeQuality;shape-rendering:geometricPrecision;text-rendering:geometricPrecision"
       inkscape:connector-curvature="0"
       class="fil3 str1"
       d="m -164.62357,618.56148 c -0.53998,2.6999 -1.16995,4.58983 -3.41987,5.93977"
       id="path136" />
    <path
       style="clip-rule:evenodd;fill:none;fill-rule:nonzero;stroke:#ffffff;stroke-width:1.79993141;stroke-linecap:round;stroke-linejoin:round;image-rendering:optimizeQuality;shape-rendering:geometricPrecision;text-rendering:geometricPrecision"
       inkscape:connector-curvature="0"
       class="fil3 str1"
       d="m -161.38369,620.45141 c -0.53998,2.5199 -1.07996,4.31983 -3.14988,5.57979"
       id="path138" />
    <path
       style="clip-rule:evenodd;fill:none;fill-rule:nonzero;stroke:#ffffff;stroke-width:1.79993141;stroke-linecap:round;stroke-linejoin:round;image-rendering:optimizeQuality;shape-rendering:geometricPrecision;text-rendering:geometricPrecision"
       inkscape:connector-curvature="0"
       class="fil3 str1"
       d="m -157.87382,622.07135 c -0.44999,2.4299 -0.98997,4.04984 -2.7899,5.30979"
       id="path140" />
  </g>
</svg>
