<?xml version="1.0" encoding="UTF-8" standalone="no"?>
<!-- Created with Inkscape (http://www.inkscape.org/) -->

<svg
   xmlns:dc="http://purl.org/dc/elements/1.1/"
   xmlns:cc="http://creativecommons.org/ns#"
   xmlns:rdf="http://www.w3.org/1999/02/22-rdf-syntax-ns#"
   xmlns:svg="http://www.w3.org/2000/svg"
   xmlns="http://www.w3.org/2000/svg"
   xmlns:sodipodi="http://sodipodi.sourceforge.net/DTD/sodipodi-0.dtd"
   xmlns:inkscape="http://www.inkscape.org/namespaces/inkscape"
   width="40.730671"
   height="41.092346"
   viewBox="0 0 40.730669 41.092344"
   id="svg6382"
   version="1.1"
   inkscape:version="0.91 r13725"
   sodipodi:docname="whistle.svg">
  <defs
     id="defs6384" />
  <sodipodi:namedview
     id="base"
     pagecolor="#ffffff"
     bordercolor="#666666"
     borderopacity="1.0"
     inkscape:pageopacity="0.0"
     inkscape:pageshadow="2"
     inkscape:zoom="0.35"
     inkscape:cx="171.07962"
     inkscape:cy="-59.453829"
     inkscape:document-units="px"
     inkscape:current-layer="layer1"
     showgrid="false"
     fit-margin-top="0"
     fit-margin-left="0"
     fit-margin-right="0"
     fit-margin-bottom="0"
     units="px"
     inkscape:window-width="1920"
     inkscape:window-height="1017"
     inkscape:window-x="-8"
     inkscape:window-y="-8"
     inkscape:window-maximized="1" />
  <metadata
     id="metadata6387">
    <rdf:RDF>
      <cc:Work
         rdf:about="">
        <dc:format>image/svg+xml</dc:format>
        <dc:type
           rdf:resource="http://purl.org/dc/dcmitype/StillImage" />
        <dc:title></dc:title>
      </cc:Work>
    </rdf:RDF>
  </metadata>
  <g
     inkscape:label="Layer 1"
     inkscape:groupmode="layer"
     id="layer1"
     transform="translate(223.22248,-431.81603)">
    <path
       style="clip-rule:evenodd;fill:none;fill-rule:nonzero;stroke:#ffffff;stroke-width:1.79993141;stroke-linecap:round;stroke-linejoin:round;image-rendering:optimizeQuality;shape-rendering:geometricPrecision;text-rendering:geometricPrecision"
       inkscape:connector-curvature="0"
       class="fil3 str1"
       d="m -218.72265,460.48885 c 1.07996,6.56975 6.65975,11.51956 13.49949,11.51956 7.55971,0 13.67948,-6.11976 13.67948,-13.67948 0,-7.55971 -6.11977,-13.67947 -13.67948,-13.67947 -6.65975,0 -12.14954,4.67982 -13.40949,10.97958"
       id="path374" />
    <path
       style="clip-rule:evenodd;fill:none;fill-rule:nonzero;stroke:#ffffff;stroke-width:1.79993141;stroke-linecap:round;stroke-linejoin:round;image-rendering:optimizeQuality;shape-rendering:geometricPrecision;text-rendering:geometricPrecision"
       inkscape:connector-curvature="0"
       class="fil3 str1"
       d="m -205.22316,451.66919 c -3.68986,0 -6.65975,2.96989 -6.65975,6.65974 0,3.68986 2.96989,6.65975 6.65975,6.65975 3.68986,0 6.65974,-2.96989 6.65974,-6.65975 0,-3.68985 -2.96988,-6.65974 -6.65974,-6.65974 z"
       id="path376" />
    <path
       style="clip-rule:evenodd;fill:none;fill-rule:nonzero;stroke:#ffffff;stroke-width:1.79993141;stroke-linecap:round;stroke-linejoin:round;image-rendering:optimizeQuality;shape-rendering:geometricPrecision;text-rendering:geometricPrecision"
       inkscape:connector-curvature="0"
       class="fil3 str1"
       d="m -219.71261,455.35905 c -1.43995,0 -2.6099,1.16995 -2.6099,2.6099 0,1.43994 1.16995,2.6099 2.6099,2.6099 1.43994,0 2.6099,-1.16996 2.6099,-2.6099 0,-1.43995 -1.16996,-2.6099 -2.6099,-2.6099 z"
       id="path378" />
    <path
       style="clip-rule:evenodd;fill:none;fill-rule:nonzero;stroke:#ffffff;stroke-width:1.79993141;stroke-linecap:round;stroke-linejoin:round;image-rendering:optimizeQuality;shape-rendering:geometricPrecision;text-rendering:geometricPrecision"
       inkscape:connector-curvature="0"
       class="fil3 str1"
       d="m -209.90299,445.45943 20.15924,-12.23954 c 0.62997,-0.35998 1.34995,-0.98996 2.15991,0.09 m 0,0 3.59987,4.58982 c 0.98996,1.25996 0.53998,2.06992 0.09,2.6099 l -3.77986,4.94982 c -2.78989,3.68985 -3.68986,8.18968 -3.77985,12.8695"
       id="path380" />
  </g>
</svg>
