<?xml version="1.0" encoding="UTF-8" standalone="no"?>
<!-- Created with Inkscape (http://www.inkscape.org/) -->

<svg
   xmlns:dc="http://purl.org/dc/elements/1.1/"
   xmlns:cc="http://creativecommons.org/ns#"
   xmlns:rdf="http://www.w3.org/1999/02/22-rdf-syntax-ns#"
   xmlns:svg="http://www.w3.org/2000/svg"
   xmlns="http://www.w3.org/2000/svg"
   xmlns:sodipodi="http://sodipodi.sourceforge.net/DTD/sodipodi-0.dtd"
   xmlns:inkscape="http://www.inkscape.org/namespaces/inkscape"
   width="40.85844"
   height="42.118404"
   viewBox="0 0 40.858442 42.118403"
   id="svg4612"
   version="1.1"
   inkscape:version="0.91 r13725"
   sodipodi:docname="scale.svg">
  <defs
     id="defs4614" />
  <sodipodi:namedview
     id="base"
     pagecolor="#ffffff"
     bordercolor="#666666"
     borderopacity="1.0"
     inkscape:pageopacity="0.0"
     inkscape:pageshadow="2"
     inkscape:zoom="0.35"
     inkscape:cx="142.57208"
     inkscape:cy="-273.22652"
     inkscape:document-units="px"
     inkscape:current-layer="layer1"
     showgrid="false"
     fit-margin-top="0"
     fit-margin-left="0"
     fit-margin-right="0"
     fit-margin-bottom="0"
     units="px"
     inkscape:window-width="1920"
     inkscape:window-height="1017"
     inkscape:window-x="-8"
     inkscape:window-y="-8"
     inkscape:window-maximized="1" />
  <metadata
     id="metadata4617">
    <rdf:RDF>
      <cc:Work
         rdf:about="">
        <dc:format>image/svg+xml</dc:format>
        <dc:type
           rdf:resource="http://purl.org/dc/dcmitype/StillImage" />
        <dc:title></dc:title>
      </cc:Work>
    </rdf:RDF>
  </metadata>
  <g
     inkscape:label="Layer 1"
     inkscape:groupmode="layer"
     id="layer1"
     transform="translate(194.71494,-217.01728)">
    <path
       style="clip-rule:evenodd;fill:none;fill-rule:nonzero;stroke:#ffffff;stroke-width:1.79993141;stroke-linecap:round;stroke-linejoin:round;image-rendering:optimizeQuality;shape-rendering:geometricPrecision;text-rendering:geometricPrecision"
       inkscape:connector-curvature="0"
       class="fil3 str1"
       d="m -183.46536,226.28694 0,0 0,0.17999 c 0,1.88993 4.58982,2.42991 9.17965,2.33991 5.2198,-0.09 9.17965,0.18 9.17965,-2.33991 l 0,-0.09 0,-0.09 0,0 c -0.26999,-4.58983 -3.86986,-8.36968 -9.17965,-8.36968 -5.12981,0 -8.99966,3.77985 -9.17965,8.36968 z"
       id="path66" />
    <line
       style="clip-rule:evenodd;fill:none;fill-rule:nonzero;stroke:#ffffff;stroke-width:1.79993141;stroke-linecap:round;stroke-linejoin:round;image-rendering:optimizeQuality;shape-rendering:geometricPrecision;text-rendering:geometricPrecision"
       class="fil3 str1"
       x1="-174.64571"
       y1="228.89684"
       x2="-172.57578"
       y2="221.9671"
       id="line68" />
    <path
       style="clip-rule:evenodd;fill:none;fill-rule:nonzero;stroke:#ffffff;stroke-width:1.79993141;stroke-linecap:round;stroke-linejoin:round;image-rendering:optimizeQuality;shape-rendering:geometricPrecision;text-rendering:geometricPrecision"
       inkscape:connector-curvature="0"
       class="fil3 str1"
       d="m -167.17599,221.06714 7.10973,0 c 2.96989,0 5.3098,2.42991 5.3098,5.3098 l 0,26.54898 c 0,2.96989 -2.42991,5.3098 -5.3098,5.3098 l -28.43891,0 c -2.96989,0 -5.3098,-2.4299 -5.3098,-5.3098 l 0,-26.54898 c 0,-2.96989 2.42991,-5.3098 5.3098,-5.3098 l 7.10973,0"
       id="path70" />
    <path
       style="clip-rule:evenodd;fill:none;fill-rule:nonzero;stroke:#ffffff;stroke-width:1.79993141;stroke-linecap:round;stroke-linejoin:round;image-rendering:optimizeQuality;shape-rendering:geometricPrecision;text-rendering:geometricPrecision"
       inkscape:connector-curvature="0"
       class="fil3 str1"
       d="m -165.10606,224.30702 3.50986,0 c 2.51991,0 3.77986,1.34994 3.77986,3.77985 l 0,23.21912 c 0,2.5199 -1.34995,3.77985 -3.77986,3.77985 l -25.46903,0 c -2.5199,0 -3.77985,-1.34995 -3.77985,-3.77985 l 0,-23.21912 c 0,-2.5199 1.34995,-3.77985 3.77985,-3.77985 l 3.50987,0"
       id="path72" />
  </g>
</svg>
