<?xml version="1.0" encoding="UTF-8" standalone="no"?>
<!-- Created with Inkscape (http://www.inkscape.org/) -->

<svg
   xmlns:dc="http://purl.org/dc/elements/1.1/"
   xmlns:cc="http://creativecommons.org/ns#"
   xmlns:rdf="http://www.w3.org/1999/02/22-rdf-syntax-ns#"
   xmlns:svg="http://www.w3.org/2000/svg"
   xmlns="http://www.w3.org/2000/svg"
   xmlns:sodipodi="http://sodipodi.sourceforge.net/DTD/sodipodi-0.dtd"
   xmlns:inkscape="http://www.inkscape.org/namespaces/inkscape"
   width="11.591722mm"
   height="12.217031mm"
   viewBox="0 0 41.073029 43.288691"
   id="svg8099"
   version="1.1"
   inkscape:version="0.91 r13725"
   sodipodi:docname="thumbsup.svg">
  <defs
     id="defs8101" />
  <sodipodi:namedview
     id="base"
     pagecolor="#ffffff"
     bordercolor="#666666"
     borderopacity="1.0"
     inkscape:pageopacity="0.0"
     inkscape:pageshadow="2"
     inkscape:zoom="0.35"
     inkscape:cx="585.53652"
     inkscape:cy="158.7872"
     inkscape:document-units="px"
     inkscape:current-layer="layer1"
     showgrid="false"
     fit-margin-top="0"
     fit-margin-left="0"
     fit-margin-right="0"
     fit-margin-bottom="0"
     inkscape:window-width="1920"
     inkscape:window-height="1017"
     inkscape:window-x="-8"
     inkscape:window-y="-8"
     inkscape:window-maximized="1" />
  <metadata
     id="metadata8104">
    <rdf:RDF>
      <cc:Work
         rdf:about="">
        <dc:format>image/svg+xml</dc:format>
        <dc:type
           rdf:resource="http://purl.org/dc/dcmitype/StillImage" />
        <dc:title></dc:title>
      </cc:Work>
    </rdf:RDF>
  </metadata>
  <g
     inkscape:label="Layer 1"
     inkscape:groupmode="layer"
     id="layer1"
     transform="translate(637.67937,-647.86072)">
    <path
       style="clip-rule:evenodd;fill:none;fill-rule:nonzero;stroke:#ffffff;stroke-width:1.79993141;stroke-linecap:round;stroke-linejoin:round;image-rendering:optimizeQuality;shape-rendering:geometricPrecision;text-rendering:geometricPrecision"
       inkscape:connector-curvature="0"
       class="fil3 str1"
       d="m -600.2962,672.43012 -14.75944,0 c -1.52994,0 -2.78989,0.80997 -2.78989,2.24992 l 0,0.89996 c 0,1.43995 1.25995,2.24992 2.78989,2.24992 l 14.75944,0 c 1.52994,0 2.78989,-0.80997 2.78989,-2.24992 l 0,-0.89996 c 0,-1.43995 -1.25995,-2.24992 -2.78989,-2.24992 z"
       id="path156" />
    <path
       style="clip-rule:evenodd;fill:none;fill-rule:nonzero;stroke:#ffffff;stroke-width:1.79993141;stroke-linecap:round;stroke-linejoin:round;image-rendering:optimizeQuality;shape-rendering:geometricPrecision;text-rendering:geometricPrecision"
       inkscape:connector-curvature="0"
       class="fil3 str1"
       d="m -602.8161,678.3699 -12.32953,0 c -1.52995,0 -2.7899,0.89996 -2.7899,2.33991 l 0,0.89996 c 0,1.43995 1.25995,2.33991 2.7899,2.33991 l 12.32953,0 c 1.52994,0 2.78989,-0.80997 2.78989,-2.33991 l 0,-0.89996 c 0,-1.43995 -1.25995,-2.33991 -2.78989,-2.33991 z"
       id="path158" />
    <path
       style="clip-rule:evenodd;fill:none;fill-rule:nonzero;stroke:#ffffff;stroke-width:1.79993141;stroke-linecap:round;stroke-linejoin:round;image-rendering:optimizeQuality;shape-rendering:geometricPrecision;text-rendering:geometricPrecision"
       inkscape:connector-curvature="0"
       class="fil3 str1"
       d="m -605.69599,684.39967 -9.35965,0 c -1.52994,0 -2.78989,0.89996 -2.78989,2.33991 l 0,0.89996 c 0,1.43995 1.25995,2.33991 2.78989,2.33991 l 9.35965,0 c 1.52994,0 2.78989,-0.80997 2.78989,-2.33991 l 0,-0.89996 c 0,-1.43995 -1.25995,-2.33991 -2.78989,-2.33991 z"
       id="path160" />
    <path
       style="clip-rule:evenodd;fill:none;fill-rule:nonzero;stroke:#ffffff;stroke-width:1.79993141;stroke-linecap:round;stroke-linejoin:round;image-rendering:optimizeQuality;shape-rendering:geometricPrecision;text-rendering:geometricPrecision"
       inkscape:connector-curvature="0"
       class="fil3 str1"
       d="m -615.32563,665.77038 c 3.77986,-6.20977 3.86986,-8.54968 2.33991,-12.23954 -2.96988,-7.19972 -7.55971,-4.58982 -7.01973,-2.78989 0.80997,2.87989 0.98996,5.2198 0.62998,7.10973 -1.88993,10.97958 -18.26931,6.29976 -17.36934,20.42922 l 0.17999,3.59986 c 0.26999,4.67982 5.2198,8.36968 8.81967,8.36968 l 8.54967,0 c 0.98996,0 1.88993,-0.17999 2.6999,-0.53998"
       id="path162" />
    <path
       style="clip-rule:evenodd;fill:none;fill-rule:nonzero;stroke:#ffffff;stroke-width:1.79993141;stroke-linecap:round;stroke-linejoin:round;image-rendering:optimizeQuality;shape-rendering:geometricPrecision;text-rendering:geometricPrecision"
       inkscape:connector-curvature="0"
       class="fil3 str1"
       d="m -603.35608,666.49035 -10.6196,0 c -1.52994,0 -2.78989,0.80997 -2.78989,2.24991 l 0,0.89997 c 0,1.43994 1.25995,2.24991 2.78989,2.24991 l 10.70959,0 c 1.52995,0 2.7899,-0.80997 2.7899,-2.24991 l 0,-0.89997 c 0,-1.43994 -1.25995,-2.24991 -2.7899,-2.24991 z"
       id="path164" />
  </g>
</svg>
