<?xml version="1.0" encoding="UTF-8" standalone="no"?>
<!-- Created with Inkscape (http://www.inkscape.org/) -->

<svg
   xmlns:dc="http://purl.org/dc/elements/1.1/"
   xmlns:cc="http://creativecommons.org/ns#"
   xmlns:rdf="http://www.w3.org/1999/02/22-rdf-syntax-ns#"
   xmlns:svg="http://www.w3.org/2000/svg"
   xmlns="http://www.w3.org/2000/svg"
   xmlns:sodipodi="http://sodipodi.sourceforge.net/DTD/sodipodi-0.dtd"
   xmlns:inkscape="http://www.inkscape.org/namespaces/inkscape"
   id="svg4136"
   version="1.1"
   inkscape:version="0.91 r13725"
   xml:space="preserve"
   width="735.6225"
   height="287.10059"
   viewBox="0 0 735.6225 287.10059"
   preserveAspectRatio="xMinYMin meet"
   sodipodi:docname="shapeitup_fitness.svg"><metadata
     id="metadata4142"><rdf:RDF><cc:Work
         rdf:about=""><dc:format>image/svg+xml</dc:format><dc:type
           rdf:resource="http://purl.org/dc/dcmitype/StillImage" /><dc:title /></cc:Work></rdf:RDF></metadata><defs
     id="defs4140"><clipPath
       clipPathUnits="userSpaceOnUse"
       id="clipPath4150"><path
         d="M 0,612 792,612 792,0 0,0 0,612 Z"
         id="path4152"
         inkscape:connector-curvature="0" /></clipPath><clipPath
       clipPathUnits="userSpaceOnUse"
       id="clipPath4194"><path
         d="m 145.878,193.284 315.887,0 0,-78.681 -315.887,0 0,78.681 z"
         id="path4196"
         inkscape:connector-curvature="0" /></clipPath><clipPath
       clipPathUnits="userSpaceOnUse"
       id="clipPath4328"><path
         d="m 139.43,482.889 315.886,0 0,-78.682 -315.886,0 0,78.682 z"
         id="path4330"
         inkscape:connector-curvature="0" /></clipPath></defs><sodipodi:namedview
     pagecolor="#ffffff"
     bordercolor="#666666"
     borderopacity="1"
     objecttolerance="10"
     gridtolerance="10"
     guidetolerance="10"
     inkscape:pageopacity="0"
     inkscape:pageshadow="2"
     inkscape:window-width="1920"
     inkscape:window-height="1017"
     id="namedview4138"
     showgrid="false"
     inkscape:zoom="1.1084967"
     inkscape:cx="253.63723"
     inkscape:cy="304.39937"
     inkscape:window-x="-8"
     inkscape:window-y="-8"
     inkscape:window-maximized="1"
     inkscape:current-layer="g4144"
     fit-margin-top="0"
     fit-margin-left="0"
     fit-margin-right="0"
     fit-margin-bottom="0" /><g
     id="g4144"
     inkscape:groupmode="layer"
     inkscape:label="FinalLogo_061114 - Copy"
     transform="matrix(1.25,0,0,-1.25,-127.24425,365.20122)"><g
       id="g4154"
       transform="translate(101.7954,62.4805)"><path
         d="m 0,0 c 0,0 133.143,90.511 289.006,127.842 155.863,37.33 299.492,7.036 299.492,7.036 0,0 -266.467,42.749 -588.498,-134.878"
         style="fill:#f1ef1e;fill-opacity:1;fill-rule:nonzero;stroke:none"
         id="path4156"
         inkscape:connector-curvature="0" /></g><g
       id="g4158"
       transform="translate(286.9287,285.8418)"><path
         d="M 0,0 C -0.107,2.877 -2.643,8.398 -4.486,5.504 -2.482,5.129 1.133,-2.871 0,0"
         style="fill:#bf1c2d;fill-opacity:1;fill-rule:nonzero;stroke:none"
         id="path4160"
         inkscape:connector-curvature="0" /></g><g
       id="g4162"
       transform="translate(298.8721,198.4912)"><path
         d="M 0,0 C -0.098,0.125 -0.191,0.254 -0.282,0.392 -3.55,2.013 -1.998,0.863 0,0"
         style="fill:#bf1c2d;fill-opacity:1;fill-rule:nonzero;stroke:none"
         id="path4164"
         inkscape:connector-curvature="0" /></g><g
       id="g4166"
       transform="translate(279.7529,264.9277)"><path
         d="m 0,0 c 1.303,0.603 4.635,-1.286 4.484,1.102 l -5.382,0 C -3.125,-0.811 -2.362,-1.744 0,0"
         style="fill:#bf1c2d;fill-opacity:1;fill-rule:nonzero;stroke:none"
         id="path4168"
         inkscape:connector-curvature="0" /></g><g
       id="g4170"
       transform="translate(287.8262,270.4316)"><path
         d="M 0,0 C -0.546,2.633 1.125,7.986 -0.897,8.806 -0.567,4.443 -3,2.078 0,0"
         style="fill:#bf1c2d;fill-opacity:1;fill-rule:nonzero;stroke:none"
         id="path4172"
         inkscape:connector-curvature="0" /></g><g
       id="g4174"
       transform="translate(288.7227,204.3867)"><path
         d="M 0,0 C 2.084,-0.453 3.791,-6.989 6.279,-3.301 3.076,-4.225 1.356,2.299 0,0"
         style="fill:#bf1c2d;fill-opacity:1;fill-rule:nonzero;stroke:none"
         id="path4176"
         inkscape:connector-curvature="0" /></g><g
       id="g4178"
       transform="translate(285.1343,247.3164)"><path
         d="m 0,0 c -0.364,4.323 -3.68,5.021 -4.484,8.804 -9.2,1.752 -8.609,-8.515 -11.662,-14.308 C -10.027,-4.347 6.36,-5.699 3.588,3.301 2.708,1.814 1.195,1.102 0,0"
         style="fill:#bf1c2d;fill-opacity:1;fill-rule:nonzero;stroke:none"
         id="path4180"
         inkscape:connector-curvature="0" /></g><g
       id="g4182"
       transform="translate(286.0313,269.3301)"><path
         d="m 0,0 0,-4.402 c 1.597,0.607 3.726,0.564 4.486,2.201 C 1.948,-0.354 1.432,-5.123 0,0"
         style="fill:#bf1c2d;fill-opacity:1;fill-rule:nonzero;stroke:none"
         id="path4184"
         inkscape:connector-curvature="0" /></g><g
       id="g4186"
       transform="translate(290.02,204.3867)"><path
         d="M 0,0 C 1.357,2.299 3.076,-4.225 6.279,-3.301 3.791,-6.989 2.084,-0.453 0,0 m -19.734,37.426 c 3.053,5.793 2.462,16.058 11.661,14.308 0.804,-3.781 3.007,-8.804 4.485,-8.804 1.478,0 2.709,1.814 3.588,3.302 2.772,-9.003 -13.615,-7.649 -19.734,-8.806 M 40.678,15.215 c 0.53,9.264 0.666,20.623 0.35,20.498 -6.12,-2.412 -19.507,19.479 -27.572,12.721 -3.644,1.031 -5.78,3.913 -8.074,6.603 0.602,1.02 5.22,-0.968 6.28,2.202 -1.171,14.302 -17.823,26.939 -18.828,23.036 -3.606,4.749 -9.288,0.983 -10.473,-1.773 -4.453,-1.141 -7.289,-2.32 -6.581,-8.055 -5.875,1.34 -5.899,-4.502 -7.175,-8.804 2.825,3.623 8.427,1.985 11.661,0 -2.567,-6.758 -7.625,-10.457 -11.661,-15.411 5.566,-4.211 5.951,6.334 8.97,8.805 3.967,-0.463 6.288,1.091 8.074,3.302 -2.17,-6.52 -11.096,-14.262 -12.559,-25.318 3.475,-5.652 16.593,-5.306 23.322,-3.299 1.704,-5.983 6.03,-8.747 6.279,-16.513 0.16,-3.864 -3.029,-3.622 -3.587,-6.605 1.625,-6.555 -4.789,-8.406 -3.588,-17.612 -3.257,-2.884 -3.833,-9.687 -5.382,-15.41 -2.228,-8.227 -3.121,-14.981 -5.383,-25.316 -0.626,-2.866 -2.124,-5.145 -2.691,-7.706 0.055,0.249 3.213,-1.824 -0.897,-3.302 -0.433,-3.466 4.113,-0.824 4.486,-3.302 2.035,-12.093 -0.501,-20.163 -3.589,-28.619 0.817,-2.666 3.605,-2.916 6.279,-3.302 5.84,2.608 -0.083,7.404 4.485,11.006 -3.211,6.695 0.119,12.189 0,20.915 3.568,0.342 4.507,-2.544 8.074,-2.203 1.859,4.185 -0.787,6.99 -0.898,11.009 -0.368,13.382 5.843,25.996 8.971,36.323 3.827,-1.54 6.159,-7.324 8.241,-11.006 7.947,-7.128 16.251,-15.879 10.112,-34.123 7.033,-0.192 10.48,5.714 12.146,12.106 2.379,1.08 -1.444,-7.208 -2.692,-8.804 3.231,-7.778 9.416,-11.928 13.456,-18.712 -0.099,-2.081 -2.965,-0.765 -2.691,-3.304 -0.237,-3.593 3.482,-2.332 3.589,-5.503 0.73,-4.605 7.773,-12.109 9.867,-12.109 -2.422,15.397 -7.313,26.644 -13.456,39.628 -0.648,3.363 0.917,4.011 0.897,6.603 -10.239,9.819 -14.424,27.064 -21.528,40.729 0.629,4.807 -1.527,6.2 -0.898,11.008 -1.42,-0.273 -11.69,-6.886 -15.865,-1.493 -1.996,0.864 -3.551,2.012 -0.281,0.391 0.09,-0.139 0.185,-0.266 0.281,-0.391 0.833,-0.361 1.742,-0.671 2.41,-0.709 5.446,-0.315 11.02,0.692 12.559,4.402 -6.855,12.321 3.319,24.528 -1.794,37.94 5.642,-0.974 11.65,-4.802 12.843,-9.319 1.526,-5.769 -2.44,-12.66 0.405,-16.15 -0.174,0.106 -3.307,-4.41 -3.383,-8.558 -0.117,-6.523 3.254,-12.134 6.487,2.539 -0.893,3.478 0.728,6.18 1.002,10.965"
         style="fill:#bf1c2d;fill-opacity:1;fill-rule:nonzero;stroke:none"
         id="path4188"
         inkscape:connector-curvature="0" /></g><g
       id="g4190"><g
         id="g4192" /><g
         id="g4198"><g
           clip-path="url(#clipPath4194)"
           id="g4200"
           style="opacity:0.41999799"><g
             transform="translate(145.8784,143.5088)"
             id="g4202"><path
               d="m 0,0 c 7.077,-8.175 14.951,-12.261 23.624,-12.261 7.276,0 10.964,2.591 10.964,7.575 0,3.589 -3.489,6.979 -10.567,9.969 -8.172,3.489 -13.456,6.279 -16.047,8.273 -4.984,3.986 -7.576,9.269 -7.576,15.949 0,6.975 2.592,12.359 7.576,16.047 9.568,7.077 26.714,3.787 36.581,0.698 l 0,-22.727 C 37.977,31.1 31.199,34.886 24.021,34.886 c -3.687,0 -5.482,-1.395 -5.482,-4.186 0,-1.794 0.997,-3.09 2.991,-4.087 2.392,-0.896 6.08,-2.393 11.064,-4.385 13.357,-5.783 20.035,-13.956 20.035,-24.522 0,-7.176 -2.691,-13.355 -7.974,-18.639 -3.388,-3.29 -7.177,-5.582 -11.263,-6.779 C 24.42,-30.401 8.572,-28.21 0,-24.422 L 0,0 Z"
               style="fill:#bf1c2d;fill-opacity:1;fill-rule:nonzero;stroke:none"
               id="path4204"
               inkscape:connector-curvature="0" /></g><g
             transform="translate(268.3843,193.2471)"
             id="g4206"><path
               d="m 0,0 -2.792,-8.174 0,-62.097 2.891,-8.374 -24.52,0 2.89,8.374 0,16.446 -9.868,-3.589 -9.868,3.589 0,-16.446 2.991,-8.374 -24.621,0 3.089,8.374 0,62.097 -2.89,8.174 24.422,0 -2.991,-8.174 0,-30.401 9.868,-3.588 9.868,3.588 0,30.401 L -24.322,0 0,0 Z"
               style="fill:#bf1c2d;fill-opacity:1;fill-rule:nonzero;stroke:none"
               id="path4208"
               inkscape:connector-curvature="0" /></g><g
             transform="translate(370.3599,177.2988)"
             id="g4210"><path
               d="m 0,0 0,-22.925 4.086,0 c 9.471,0 14.154,4.185 14.154,12.459 0,4.385 -1.394,7.277 -4.186,8.772 C 12.061,-0.598 8.671,0 3.787,0 L 0,0 Z m 0,-38.376 0,-16.147 2.89,-8.173 -24.321,0 2.89,8.173 0,62.099 -3.089,8.372 29.106,0 c 18.44,0 27.709,-9.07 27.809,-27.212 0.2,-16.845 -12.858,-27.112 -29.105,-27.112 l -6.18,0 z"
               style="fill:#bf1c2d;fill-opacity:1;fill-rule:nonzero;stroke:none"
               id="path4212"
               inkscape:connector-curvature="0" /></g><g
             transform="translate(412.9229,114.6025)"
             id="g4214"><path
               d="m 0,0 2.691,8.173 0,62.198 -2.89,8.274 47.945,0 0,-18.141 -8.274,2.791 -18.04,0 0,-14.154 13.456,0 6.578,2.193 0,-19.438 -6.678,1.894 -13.356,0 0,-18.44 20.931,0 6.379,3.088 L 48.842,0 0,0 Z"
               style="fill:#bf1c2d;fill-opacity:1;fill-rule:nonzero;stroke:none"
               id="path4216"
               inkscape:connector-curvature="0" /></g></g></g></g><g
       id="g4218"
       transform="translate(581.1289,136.7275)"><path
         d="m 0,0 c 0,-9.245 -4.953,-15.999 -12.324,-19.947 -10.021,-5.401 -26.489,-5.506 -36.739,-0.52 -7.832,3.948 -13.244,10.909 -13.244,20.467 l 0,49.345 -3.34,8.518 27.64,0 -3.225,-8.518 0,-47.995 c 0,-11.012 20.156,-11.012 20.156,0 l 0,47.995 -3.226,8.518 27.641,0 L 0,49.345 0,0 Z"
         style="fill:#2f3592;fill-opacity:1;fill-rule:nonzero;stroke:none"
         id="path4220"
         inkscape:connector-curvature="0" /></g><g
       id="g4222"
       transform="translate(620.9756,177.9688)"><path
         d="m 0,0 0,-23.893 4.722,0 c 10.941,0 16.353,4.364 16.353,12.986 0,4.571 -1.611,7.584 -4.837,9.141 C 13.936,-0.623 10.021,0 4.377,0 L 0,0 Z m 0,-39.995 0,-16.83 3.34,-8.519 -28.101,0 3.34,8.519 0,64.721 -3.57,8.725 33.629,0 c 21.306,0 32.017,-9.452 32.132,-28.359 0.231,-17.557 -14.856,-28.257 -33.628,-28.257 l -7.142,0 z"
         style="fill:#2f3592;fill-opacity:1;fill-rule:nonzero;stroke:none"
         id="path4224"
         inkscape:connector-curvature="0" /></g><g
       id="g4211"
       transform="translate(-193.89325,0)"><g
         transform="translate(472.1875,96.8389)"
         id="g4262"><path
           inkscape:connector-curvature="0"
           id="path4264"
           style="fill:#211d1d;fill-opacity:1;fill-rule:nonzero;stroke:none"
           d="m 0,0 0,-5.729 16.951,0 0,-5.439 -16.951,0 0,-8.61 -5.144,0 0,25.218 24.404,0 L 19.26,0 0,0 Z" /></g><path
         inkscape:connector-curvature="0"
         id="path4266"
         style="fill:#211d1d;fill-opacity:1;fill-rule:nonzero;stroke:none"
         d="m 498.812,102.279 5.144,0 0,-25.219 -5.144,0 0,25.219 z" /><g
         transform="translate(525.3496,96.8389)"
         id="g4268"><path
           inkscape:connector-curvature="0"
           id="path4270"
           style="fill:#211d1d;fill-opacity:1;fill-rule:nonzero;stroke:none"
           d="m 0,0 0,-19.778 -5.115,0 0,19.778 -9.206,0 0,5.44 23.527,0 L 9.206,0 0,0 Z" /></g><g
         transform="translate(561.5605,77.0605)"
         id="g4272"><path
           inkscape:connector-curvature="0"
           id="path4274"
           style="fill:#211d1d;fill-opacity:1;fill-rule:nonzero;stroke:none"
           d="m 0,0 -14.787,17.617 0,-17.617 -5.146,0 0,25.219 5.146,0 L 0,7.602 l 0,17.617 5.145,0 L 5.145,0 0,0 Z" /></g><g
         transform="translate(574.6543,77.0605)"
         id="g4276"><path
           inkscape:connector-curvature="0"
           id="path4278"
           style="fill:#211d1d;fill-opacity:1;fill-rule:nonzero;stroke:none"
           d="m 0,0 0,25.219 24.639,0 0,-5.441 -19.495,0 0,-4.539 17.156,0 0,-4.899 -17.156,0 0,-4.9 20.254,0 0,-5.44 L 0,0 Z" /></g><g
         transform="translate(631.0615,85.2021)"
         id="g4280"><path
           inkscape:connector-curvature="0"
           id="path4282"
           style="fill:#211d1d;fill-opacity:1;fill-rule:nonzero;stroke:none"
           d="m 0,0 c 0,-1.249 -0.273,-2.426 -0.819,-3.53 -0.545,-1.105 -1.382,-2.072 -2.513,-2.901 -1.13,-0.828 -2.543,-1.476 -4.238,-1.945 -1.694,-0.468 -3.702,-0.702 -6.02,-0.702 -1.188,0 -2.408,0.12 -3.654,0.36 -1.071,0.193 -2.25,0.492 -3.536,0.901 -1.286,0.408 -2.533,0.996 -3.741,1.765 l 1.783,5.043 c 1.071,-0.672 2.149,-1.194 3.229,-1.566 1.081,-0.373 2.061,-0.644 2.938,-0.811 1.033,-0.193 2.025,-0.301 2.981,-0.324 2.922,0 5.1,0.324 6.532,0.973 1.432,0.648 2.147,1.5 2.147,2.557 0,0.672 -0.225,1.164 -0.672,1.477 -0.447,0.312 -1.139,0.492 -2.074,0.541 -0.215,0.023 -0.619,0.054 -1.213,0.09 -0.596,0.036 -1.32,0.078 -2.178,0.126 -0.856,0.048 -1.811,0.095 -2.864,0.144 -1.052,0.048 -2.144,0.108 -3.274,0.18 -1.129,0.072 -2.167,0.264 -3.112,0.576 -0.945,0.313 -1.765,0.763 -2.455,1.352 -0.691,0.588 -1.232,1.308 -1.622,2.161 -0.39,0.852 -0.585,1.855 -0.585,3.009 0,1.152 0.307,2.239 0.92,3.259 0.615,1.021 1.491,1.91 2.633,2.666 1.138,0.757 2.522,1.352 4.148,1.784 1.627,0.432 3.446,0.648 5.451,0.648 1.188,0 2.397,-0.107 3.624,-0.324 1.052,-0.193 2.226,-0.468 3.523,-0.828 1.294,-0.361 2.557,-0.889 3.784,-1.585 l -1.549,-4.972 c -0.603,0.312 -1.285,0.612 -2.046,0.9 -0.759,0.289 -1.554,0.54 -2.382,0.757 -0.828,0.216 -1.666,0.384 -2.513,0.504 -0.848,0.12 -1.66,0.181 -2.441,0.181 -1.169,0 -2.255,-0.068 -3.257,-0.198 -1.004,-0.133 -1.877,-0.331 -2.618,-0.595 -0.74,-0.265 -1.319,-0.589 -1.738,-0.973 -0.42,-0.385 -0.629,-0.817 -0.629,-1.297 0,-0.625 0.215,-1.093 0.644,-1.405 0.427,-0.312 1.061,-0.492 1.898,-0.54 0.937,-0.049 2.251,-0.121 3.947,-0.217 C -11.866,7.146 -9.859,7.037 -7.54,6.917 -6.372,6.846 -5.324,6.652 -4.398,6.341 -3.473,6.028 -2.684,5.584 -2.031,5.008 -1.379,4.432 -0.877,3.723 -0.526,2.883 -0.175,2.041 0,1.081 0,0" /></g><g
         transform="translate(661.6318,85.2021)"
         id="g4284"><path
           inkscape:connector-curvature="0"
           id="path4286"
           style="fill:#211d1d;fill-opacity:1;fill-rule:nonzero;stroke:none"
           d="m 0,0 c 0,-1.249 -0.273,-2.426 -0.818,-3.53 -0.546,-1.105 -1.383,-2.072 -2.514,-2.901 -1.13,-0.828 -2.543,-1.476 -4.238,-1.945 -1.694,-0.468 -3.702,-0.702 -6.02,-0.702 -1.188,0 -2.407,0.12 -3.654,0.36 -1.071,0.193 -2.25,0.492 -3.536,0.901 -1.286,0.408 -2.533,0.996 -3.741,1.765 l 1.783,5.043 c 1.071,-0.672 2.149,-1.194 3.229,-1.566 1.081,-0.373 2.061,-0.644 2.938,-0.811 1.033,-0.193 2.025,-0.301 2.981,-0.324 2.922,0 5.1,0.324 6.532,0.973 1.432,0.648 2.147,1.5 2.147,2.557 0,0.672 -0.224,1.164 -0.672,1.477 -0.447,0.312 -1.139,0.492 -2.074,0.541 -0.215,0.023 -0.619,0.054 -1.213,0.09 -0.596,0.036 -1.32,0.078 -2.178,0.126 -0.857,0.048 -1.811,0.095 -2.864,0.144 -1.052,0.048 -2.144,0.108 -3.274,0.18 -1.129,0.072 -2.167,0.264 -3.112,0.576 -0.945,0.313 -1.764,0.763 -2.455,1.352 -0.691,0.588 -1.232,1.308 -1.621,2.161 -0.391,0.852 -0.586,1.855 -0.586,3.009 0,1.152 0.307,2.239 0.92,3.259 0.615,1.021 1.491,1.91 2.633,2.666 1.138,0.757 2.522,1.352 4.149,1.784 1.626,0.432 3.445,0.648 5.45,0.648 1.188,0 2.397,-0.107 3.624,-0.324 1.052,-0.193 2.227,-0.468 3.523,-0.828 1.294,-0.361 2.557,-0.889 3.785,-1.585 l -1.55,-4.972 c -0.604,0.312 -1.285,0.612 -2.046,0.9 -0.759,0.289 -1.553,0.54 -2.382,0.757 -0.828,0.216 -1.666,0.384 -2.513,0.504 -0.848,0.12 -1.66,0.181 -2.441,0.181 -1.169,0 -2.255,-0.068 -3.257,-0.198 -1.004,-0.133 -1.875,-0.331 -2.618,-0.595 -0.74,-0.265 -1.319,-0.589 -1.738,-0.973 -0.42,-0.385 -0.629,-0.817 -0.629,-1.297 0,-0.625 0.215,-1.093 0.644,-1.405 0.427,-0.312 1.061,-0.492 1.898,-0.54 0.937,-0.049 2.251,-0.121 3.947,-0.217 C -11.866,7.146 -9.859,7.037 -7.54,6.917 -6.372,6.846 -5.323,6.652 -4.398,6.341 -3.473,6.028 -2.684,5.584 -2.031,5.008 -1.378,4.432 -0.876,3.723 -0.526,2.883 -0.175,2.041 0,1.081 0,0" /></g></g><g
       id="g4360"
       transform="translate(467.5605,135.2559)"><path
         d="M 0,0 0.412,38.076 -0.935,43.223 11.001,43.094 9.658,37.976 9.246,-0.101 10.594,-5.108 -1.398,-4.978 0,0 Z"
         style="fill:#80cc2a;fill-opacity:1;fill-rule:nonzero;stroke:none"
         id="path4362"
         inkscape:connector-curvature="0" /></g><g
       id="g4364"
       transform="translate(503.0645,169.1064)"><path
         d="m 0,0 -0.363,-33.637 1.176,-5.146 -11.934,0.13 1.512,5.048 0.362,33.704 -7.284,0.078 -3.277,-2.393 0.129,11.861 L 10.637,9.318 10.515,-2.057 7.341,-0.08 0,0 Z"
         style="fill:#80cc2a;fill-opacity:1;fill-rule:nonzero;stroke:none"
         id="path4366"
         inkscape:connector-curvature="0" /></g><path
       d="m 510.38,184.494 -41.53,0 0,8.506 41.53,0 0,-8.506 z"
       style="fill:#80cc2a;fill-opacity:1;fill-rule:nonzero;stroke:none"
       id="path4368"
       inkscape:connector-curvature="0" /><path
       d="m 511.13,115.193 -43.531,0 0,8.506 43.531,0 0,-8.506 z"
       style="fill:#80cc2a;fill-opacity:1;fill-rule:nonzero;stroke:none"
       id="path4370"
       inkscape:connector-curvature="0" /></g></svg>